# xmcd
#
# Track frame offsets:
#	150
#	12596
#	28706
#	42667
#	62524
#	79954
#	93549
#	107986
#	121959
#	136217
#	146875
#	162296
#	177791
#	194357
#	211167
#	229310
#	241768
#	256761
#	270909
#	288866
#	303633
#	304478
#	305287
#	306211
#	307046
#	308142
#	309006
#
# Disc length: 4126 seconds
#
# Revision: 1
# Processed by: cddbd v1.5.2PL0 Copyright (c) Steve Scherf et al.
# Submitted via: audiograbber 1.83.01
#
DISCID=7b101c1b
DTITLE=Various Artist - CDX 578
DYEAR=2013
DGENRE=Country
TTITLE0=Hunter Hayes ft.  Jason Mraz - Everybody's Got Somebody But Me
TTITLE1=Krystal Keith - Get Your Redneck On
TTITLE2=Morgan Frazier - Hey Bully
TTITLE3=Brad Paisley - I Can't Change The World (Single Version)
TTITLE4=Dierks Bentley - I Hold On
TTITLE5=Brothers Osborne - Let's Go There
TTITLE6=Kellie Pickler - Little Bit Gypsy
TTITLE7=Dylan Scott - Makin' This Boy Go Crazy
TTITLE8=Sara Evans - Slow Me Down (Single Edit)
TTITLE9=Hank Williams Jr. ft  Merle Haggard - I Think I'll Just Stay Here And D
TTITLE9=rink
TTITLE10=Ty Herndon - Lies I Told Myself
TTITLE11=Casey Donahew Band - Small Town Love
TTITLE12=Lower 40 - Call Me Crazy
TTITLE13=Rachelle Karryn - Don't Tell Me
TTITLE14=Southland Romeo - Dream Girl
TTITLE15=Chris Cox - Heaven To Win
TTITLE16=Summer Schappell - It's Working
TTITLE17=Amy Jack - Lay Me Down In Oklahoma
TTITLE18=Ryan Chrys - Perfect Company
TTITLE19=Jason Mitchell - Stomp
TTITLE20=Ryan Broshear - Home Town Country (Liner)
TTITLE21=Ryan Broshear - Kickin' Country (Liner)
TTITLE22=Ryan Broshear - Super Country Greatest Hits (Liner)
TTITLE23=Ryan Broshear - The Best In Country Music (Liner)
TTITLE24=Ryan Broshear - The Best In Today's Hot New Country (Liner)
TTITLE25=Ryan Broshear - Today's Best Country (Liner)
TTITLE26=Ryan Broshear - Today's Hot Country Music (Liner)
EXTD=
EXTT0=
EXTT1=
EXTT2=
EXTT3=
EXTT4=
EXTT5=
EXTT6=
EXTT7=
EXTT8=
EXTT9=
EXTT10=
EXTT11=
EXTT12=
EXTT13=
EXTT14=
EXTT15=
EXTT16=
EXTT17=
EXTT18=
EXTT19=
EXTT20=
EXTT21=
EXTT22=
EXTT23=
EXTT24=
EXTT25=
EXTT26=
PLAYORDER=
